<svg width="37" height="36" viewBox="0 0 37 36" fill="none" xmlns="http://www.w3.org/2000/svg">
<path d="M35.1038 8.01909V27.4991C35.1038 31.3238 32.0032 34.4244 28.1785 34.4244H8.69848C4.87372 34.4244 1.77319 31.3238 1.77319 27.4991V8.01909C1.77319 4.19434 4.87372 1.0938 8.69848 1.0938H28.1785C32.0032 1.0938 35.1038 4.19434 35.1038 8.01909ZM14.9079 27.2029C23.1288 30.0394 30.7187 22.4495 27.8823 14.2285C26.9265 11.4577 24.74 9.27102 21.9693 8.31529C13.7481 5.47882 6.1582 13.0687 8.99468 21.2899C9.95041 24.0606 12.1369 26.2472 14.9079 27.2029ZM6.87307 7.68058C7.00388 8.36554 7.57064 8.76407 8.15694 8.76407C8.51376 8.76407 8.8775 8.61678 9.156 8.29719C9.18062 8.26891 9.2036 8.2386 9.22395 8.20706C9.5114 7.76765 9.52035 7.24564 9.27603 6.82229C9.10311 6.52263 8.824 6.30862 8.48976 6.21911C8.15592 6.12919 7.80683 6.17537 7.50758 6.34849C7.08403 6.59262 6.83096 7.04932 6.85985 7.57296C6.86188 7.60877 6.86615 7.64518 6.87307 7.68058Z" fill="#663333"/>
<path d="M18.4386 9.66189C22.9035 9.66189 26.5356 13.294 26.5356 17.759C26.5356 22.2239 22.9035 25.856 18.4386 25.856C13.9736 25.856 10.3415 22.2239 10.3415 17.759C10.3415 13.294 13.9736 9.66189 18.4386 9.66189Z" fill="#663333"/>
</svg>
