<svg width="14" height="14" viewBox="0 0 14 14" fill="none" xmlns="http://www.w3.org/2000/svg">
<path fill-rule="evenodd" clip-rule="evenodd" d="M7.00039 12.6C8.4856 12.6 9.90999 12.01 10.9602 10.9598C12.0104 9.90959 12.6004 8.48521 12.6004 6.99999C12.6004 5.51478 12.0104 4.0904 10.9602 3.0402C9.90999 1.98999 8.4856 1.39999 7.00039 1.39999C5.51518 1.39999 4.0908 1.98999 3.04059 3.0402C1.99039 4.0904 1.40039 5.51478 1.40039 6.99999C1.40039 8.48521 1.99039 9.90959 3.04059 10.9598C4.0908 12.01 5.51518 12.6 7.00039 12.6V12.6ZM9.59529 6.09489C9.7228 5.96287 9.79336 5.78605 9.79176 5.60251C9.79017 5.41898 9.71655 5.24341 9.58676 5.11362C9.45698 4.98384 9.28141 4.91022 9.09787 4.90862C8.91433 4.90703 8.73751 4.97758 8.60549 5.10509L6.30039 7.41019L5.39529 6.50509C5.26327 6.37758 5.08645 6.30703 4.90291 6.30862C4.71937 6.31022 4.5438 6.38384 4.41402 6.51362C4.28423 6.64341 4.21061 6.81898 4.20902 7.00251C4.20742 7.18605 4.27798 7.36287 4.40549 7.49489L5.80549 8.89489C5.93676 9.02612 6.11478 9.09984 6.30039 9.09984C6.48601 9.09984 6.66402 9.02612 6.79529 8.89489L9.59529 6.09489V6.09489Z" fill="#2E964B"/>
</svg>
