<svg width="16" height="16" viewBox="0 0 16 16" fill="none" xmlns="http://www.w3.org/2000/svg">
<path d="M11.7717 11.1047L8.94299 13.9333C8.81929 14.0571 8.67239 14.1554 8.5107 14.2224C8.34901 14.2894 8.17569 14.3239 8.00066 14.3239C7.82563 14.3239 7.65231 14.2894 7.49062 14.2224C7.32893 14.1554 7.18203 14.0571 7.05833 13.9333L4.22899 11.1047C3.48314 10.3588 2.97522 9.40845 2.76945 8.3739C2.56369 7.33934 2.66932 6.267 3.073 5.29247C3.47667 4.31795 4.16026 3.48501 5.03732 2.89899C5.91437 2.31297 6.94551 2.00018 8.00033 2.00018C9.05515 2.00018 10.0863 2.31297 10.9633 2.89899C11.8404 3.48501 12.524 4.31795 12.9277 5.29247C13.3313 6.267 13.437 7.33934 13.2312 8.3739C13.0254 9.40845 12.5175 10.3588 11.7717 11.1047V11.1047Z" stroke="black" stroke-width="2" stroke-linecap="round" stroke-linejoin="round"/>
<path d="M9.41421 8.74756C9.78929 8.37248 10 7.86378 10 7.33334C10 6.80291 9.78929 6.2942 9.41421 5.91913C9.03914 5.54406 8.53043 5.33334 8 5.33334C7.46957 5.33334 6.96086 5.54406 6.58579 5.91913C6.21071 6.2942 6 6.80291 6 7.33334C6 7.86378 6.21071 8.37248 6.58579 8.74756C6.96086 9.12263 7.46957 9.33334 8 9.33334C8.53043 9.33334 9.03914 9.12263 9.41421 8.74756Z" stroke="black" stroke-width="2" stroke-linecap="round" stroke-linejoin="round"/>
</svg>
