<svg width="36" height="35" viewBox="0 0 36 35" fill="none" xmlns="http://www.w3.org/2000/svg">
<g clip-path="url(#clip0_4627_176)">
<path d="M35.049 20.9432V33.6765H27.6671V21.796C27.6671 18.8115 26.5993 16.7747 23.9273 16.7747C21.8876 16.7747 20.6737 18.1474 20.1397 19.4752C19.945 19.9499 19.8948 20.6106 19.8948 21.275V33.6765H12.5104C12.5104 33.6765 12.6099 13.5548 12.5104 11.4701H19.8941V14.6177C19.8791 14.6413 19.8597 14.6667 19.8456 14.6895H19.8941V14.6177C20.8751 13.1068 22.6271 10.9484 26.5485 10.9484C31.4069 10.9483 35.049 14.1222 35.049 20.9432ZM4.78597 0.765503C2.25977 0.765503 0.607422 2.42249 0.607422 4.60149C0.607422 6.73301 2.21196 8.44028 4.68796 8.44028H4.73729C7.31242 8.44028 8.91391 6.73333 8.91391 4.60149C8.86539 2.42249 7.31242 0.765503 4.78597 0.765503ZM1.04599 33.6765H8.42762V11.4701H1.04599V33.6765Z" fill="white"/>
</g>
<defs>
<clipPath id="clip0_4627_176">
<rect width="34.4416" height="34.4416" fill="white" transform="translate(0.607422)"/>
</clipPath>
</defs>
</svg>
