<svg width="146" height="280" viewBox="0 0 146 280" fill="none" xmlns="http://www.w3.org/2000/svg">
<path fill-rule="evenodd" clip-rule="evenodd" d="M82.1659 257.996C106.584 200.444 145.744 108.147 145.744 72.8718C145.744 32.6258 113.118 0 72.8718 0C32.6258 0 0 32.6258 0 72.8718C0 108.107 39.8963 202.16 63.8029 258.519C67.2029 266.534 70.2794 273.787 72.8718 280C75.5765 273.526 78.7248 266.106 82.1659 257.996ZM72.8718 104.103C91.7061 104.103 106.974 88.8343 106.974 70C106.974 51.1657 91.7061 35.8974 72.8718 35.8974C54.0375 35.8974 38.7692 51.1657 38.7692 70C38.7692 88.8343 54.0375 104.103 72.8718 104.103Z" fill="#FFD600"/>
</svg>
