<svg width="48" height="48" viewBox="0 0 48 48" fill="none" xmlns="http://www.w3.org/2000/svg">
<g style="mix-blend-mode:multiply">
<path d="M8 8H40C42.2 8 44 9.8 44 12V36C44 38.2 42.2 40 40 40H8C5.8 40 4 38.2 4 36V12C4 9.8 5.8 8 8 8Z" fill="#565656"/>
<path d="M44 12L24 26L4 12" fill="#565656"/>
<path d="M44 12C44 9.8 42.2 8 40 8H8C5.8 8 4 9.8 4 12M44 12V36C44 38.2 42.2 40 40 40H8C5.8 40 4 38.2 4 36V12M44 12L24 26L4 12" stroke="white" stroke-width="3" stroke-linecap="round" stroke-linejoin="round"/>
</g>
</svg>
