<svg width="1244" height="85" viewBox="0 0 1244 85" fill="none" xmlns="http://www.w3.org/2000/svg">
<g opacity="0.25">
<path d="M1243 83.7133C1243 83.7133 1117.59 4.94372 942 16.7658C818 25.1144 799.581 84.6094 644 83.7134C521.8 83.0096 468.472 19.461 347.705 31.5517C270.376 39.2935 242.372 80.5644 164.274 83.7133C98.9077 86.3489 1.00015 43.0177 1.00015 43.0177" stroke="black"/>
<ellipse opacity="0.75" cx="1052" cy="21.2038" rx="15" ry="13.314" transform="rotate(-180 1052 21.2038)" fill="#EDF1F6"/>
<path d="M385.97 26.628C385.97 41.0068 399.029 52.7559 415.26 52.7559C431.49 52.7559 444.55 41.0068 444.55 26.628C444.55 12.2492 431.49 0.5 415.26 0.5C399.029 0.5 385.97 12.2492 385.97 26.628Z" stroke="black"/>
</g>
</svg>
