<svg width="1244" height="85" viewBox="0 0 1244 85" fill="none" xmlns="http://www.w3.org/2000/svg">
<g opacity="0.25">
<path d="M1243 1.11551C1243 1.11551 1117.59 79.8851 942 68.0631C818 59.7145 799.581 0.219433 644 1.11546C521.8 1.81923 468.472 65.3679 347.705 53.2772C270.376 45.5354 242.372 4.26442 164.274 1.11551C98.9077 -1.52006 1.00015 41.8112 1.00015 41.8112" stroke="black"/>
<ellipse opacity="0.75" cx="15" cy="13.314" rx="15" ry="13.314" transform="matrix(-1 0 0 1 1067 50.311)" fill="#EDF1F6"/>
<path d="M385.97 58.2008C385.97 43.822 399.029 32.0729 415.26 32.0729C431.49 32.0729 444.55 43.822 444.55 58.2008C444.55 72.5796 431.49 84.3288 415.26 84.3288C399.029 84.3288 385.97 72.5796 385.97 58.2008Z" stroke="black"/>
</g>
</svg>
